<?xml version="1.0" encoding="UTF-8"?>
<svg id="_图层_1" data-name="图层 1" xmlns="http://www.w3.org/2000/svg" viewBox="0 0 1015.23 183.11">
	<defs>
		<style>
			.cls-1 {
			fill: #fff;
			}

			.cls-2 {
			fill: #f76728;
			}
		</style>
	</defs>
	<g>
		<path class="cls-1"
		      d="M182.32,183.11v-2.54c-.04-.06-.09-.13-.13-.19-.07-.11-.16-.22-.23-.33,0-.01-.02-.02-.02-.03-.78-1.15-1.61-2.28-2.42-3.41-26.24-36.56-67.53-61.56-114.82-65.93-10.05-1.06-19.25-1.03-26.68-.23-.34,.03-.68,.05-1.03,.08-2.72,.22-4.62-2.61-3.35-5.02,9.56-18.21,36.75-70.48,44.24-84.31,.72-1.34-.35-2.98-1.86-2.82-3.78,.41-6.33,1.71-8.72,3.7-.17,.27-.36,.57-.54,.86-2.91,4.63-42.61,71.11-54.54,91.54-6.12,10.49-10.69,18.4-12.21,21.15,.29-.11,.58-.23,.87-.34,.11-.05,.23-.09,.35-.14,17.84-6.89,37.21-10.71,57.48-10.71,48.93,0,92.69,22.05,121.96,56.72"/>
		<g>
			<path class="cls-1"
			      d="M104.12,1.97c-.93,2.09-2.22,4.93-3.2,7.1-.59,1.3,.41,2.78,1.84,2.69,3.91-.24,8.14-.3,12.77,.05,2.12,.16,4.11-1.04,4.86-3.04l.89-2.37C122.43,3.28,120.1-.05,116.78,0c-4.98,.07-9.16,.57-11.21,.87-.65,.09-1.18,.5-1.44,1.11Z"/>
			<path class="cls-1"
			      d="M93.64,25.18c-1.06,2.37-2.68,5.95-3.83,8.47-.58,1.27,.35,2.72,1.75,2.69,4.48-.08,9.53,.15,14.47,.67,2.14,.22,4.14-1.05,4.88-3.06,.4-1.1,.86-2.34,1.31-3.56,1.1-2.99-1.02-6.18-4.2-6.35-5.52-.3-10.44-.11-12.77,.03-.71,.04-1.32,.47-1.61,1.12Z"/>
			<path class="cls-1"
			      d="M80.9,53.31c-2.7,5.97-14.14,30.96-17.91,39.17-.57,1.24,.32,2.62,1.69,2.67,5.28,.18,11.47,.71,18.49,1.83,2.22,.35,4.39-.85,5.18-2.95,2.64-7.03,8.52-22.7,12.16-32.36,1.59-4.22-1.36-8.75-5.86-9.08-5.03-.37-9.53-.42-12.08-.38-.73,.01-1.37,.44-1.67,1.11Z"/>
			<path class="cls-1"
			      d="M134.62,6.25c-.35,1.2-.71,2.46-1.05,3.62-.71,2.47,.73,5.06,3.18,5.8,5.1,1.54,10.02,3.49,13.98,5.41,1.85,.89,2.94,2.81,2.81,4.85-.06,.97-.13,2.07-.2,3.19-.23,3.61-4.04,5.84-7.32,4.3-4.35-2.05-7.63-3.27-12.85-4.87-2.52-.77-5.18,.65-5.92,3.18-.41,1.4-.85,2.96-1.27,4.4-.7,2.41,.62,4.95,3.01,5.72,5.74,1.85,13.02,4.79,19.09,7.99,2.29,1.21,3.64,3.64,3.47,6.22-.1,1.53-.22,3.33-.33,5.15-.27,4.17-4.73,6.66-8.45,4.76-6.6-3.37-12.12-5.53-18.18-7.49-2.54-.82-5.23,.61-5.97,3.18-.64,2.24-1.41,4.93-2.05,7.22-.69,2.45,.71,4.99,3.16,5.71,5.97,1.76,14.35,4.58,25.91,11.06,2.32,1.3,3.73,3.81,3.56,6.46-.1,1.64-.22,3.58-.34,5.53-.28,4.47-5.1,7.05-9.04,4.92-8.48-4.58-16.74-7.91-25.03-10.43-2.51-.76-5.14,.61-5.88,3.13-.26,.89-.55,1.89-.92,3.18-.69,2.4,.59,4.9,2.93,5.75,13.48,4.91,33.57,14.67,52.16,32.58,1.18,1.13,3.13,.39,3.17-1.25,.51-20.01,2.63-103.92,2.89-117.56,.01-.59-.28-1.15-.76-1.49-11.32-8.02-20.47-11.43-27.97-13.46-2.49-.67-5.1,.75-5.81,3.24Z"/>
		</g>
		<path class="cls-1"
		      d="M183,31.07c4.23-4.96,9.74-10.26,14.9-14.23,2.91-2.24,7.15-.39,7.56,3.26,.15,1.37,.29,2.66,.42,3.86,.17,1.69-.57,3.31-1.97,4.28-4.44,3.09-10.82,7.81-18.03,15.74-1.18,1.3-3.34,.49-3.34-1.26v-10.39c0-.46,.15-.9,.45-1.25Z"/>
		<path class="cls-1"
		      d="M182.98,62.31c5.94-7.39,12.57-12.95,18.15-17.09,2.93-2.17,7.1-.32,7.49,3.3,.15,1.42,.31,2.87,.46,4.19,.19,1.69-.54,3.37-1.92,4.37-8.35,6.05-12.45,9.1-21.28,18.78-1.18,1.29-3.34,.48-3.34-1.27v-11.03c0-.45,.16-.89,.44-1.24Z"/>
		<path class="cls-1"
		      d="M182.97,98.61c5.75-7.02,14.63-15.2,21.9-20.77,2.9-2.22,7.12-.38,7.53,3.25,.27,2.38,.52,4.64,.71,6.56,.18,1.73-.63,3.38-2.07,4.36-9.21,6.27-17.99,14.39-25.15,22.82-1.15,1.35-3.35,.53-3.35-1.24v-13.76c0-.45,.14-.87,.43-1.22Z"/>
		<path class="cls-1"
		      d="M182.93,140.57c9.48-12.6,17.78-20.01,26.05-26.29,2.93-2.22,7.15-.46,7.57,3.19,.18,1.57,.36,3.14,.58,5.09,.18,1.63-.5,3.26-1.78,4.28-10.17,8.08-19.21,16.57-29.35,30.31-1.09,1.48-3.45,.72-3.45-1.12,0-6.48-.01-12.4-.01-14.3,0-.42,.14-.82,.4-1.16Z"/>
		<path class="cls-1"
		      d="M218.24,5.63c9.2-3.43,25.57-6.93,41.01-5.05,.67,.08,1.24,.51,1.52,1.12,.71,1.56,2.15,4.69,3.34,7.25,.61,1.31-.38,2.77-1.83,2.71-8.57-.35-17.85,.19-26.49,2.4-2.54,.65-4.12,3.22-3.43,5.75,6.99,25.63,19.94,52.65,46.9,74.98,1.27,1.05,.78,3.09-.85,3.35-11.25,1.76-25.67,6.27-40.17,13.72-1.13,.58-2.5-.04-2.75-1.29-4.57-22.94-17-83.8-20.23-99.61-.47-2.28,.79-4.54,2.97-5.35Z"/>
	</g>
	<g>
		<path class="cls-2"
		      d="M182.32,183.11v-2.53s0-.02,0-.02c.04-.06,.09-.13,.13-.19,.07-.11,.16-.22,.23-.33,0-.01,.02-.02,.02-.03,.78-1.15,1.61-2.28,2.42-3.41,26.24-36.56,67.53-61.56,114.82-65.93,10.05-1.06,19.25-1.03,26.68-.23,.34,.03,.68,.05,1.03,.08,2.72,.22,4.62-2.61,3.35-5.02-9.56-18.21-36.75-70.48-44.24-84.31-.72-1.34,.35-2.98,1.86-2.82,3.78,.41,6.33,1.71,8.72,3.7,.17,.27,.36,.57,.54,.86,2.91,4.63,42.61,71.11,54.54,91.54,6.12,10.49,10.69,18.4,12.21,21.15-.29-.11-.58-.23-.87-.34-.11-.05-.23-.09-.35-.14-17.84-6.89-37.21-10.71-57.48-10.71-48.93,0-92.69,22.05-121.96,56.72"/>
		<path class="cls-2"
		      d="M255.86,24.25c5.17-.43,10.26-.47,13.95-.3,.71,.03,1.3,.44,1.6,1.08,3.96,8.51,21.98,47.18,30.28,65.02,.76,1.64-.97,3.32-2.6,2.53-25.2-12.24-41.93-45.46-47.36-62.28-.93-2.86,1.12-5.82,4.12-6.07Z"/>
	</g>
	<g>
		<g>
			<g>
				<polygon class="cls-1"
				         points="1015.23 64.62 1015.23 55.59 941.29 55.8 941.29 64.83 970.13 64.75 970.13 84.63 941.29 84.71 941.29 93.74 970.13 93.66 970.13 113.38 941.29 113.46 941.29 122.5 1015.23 122.28 1015.23 113.25 986.38 113.33 986.38 93.62 1015.23 93.53 1015.23 84.5 986.38 84.58 986.38 64.7 1015.23 64.62"/>
				<path class="cls-1"
				      d="M1005.1,2.54l-53.62,.16c-5.09,.02-9.22,3.98-9.22,8.87v26.58c0,4.91,4.16,8.88,9.27,8.87l53.62-.16c5.09-.02,9.22-3.98,9.22-8.87V11.41c0-4.91-4.16-8.88-9.27-8.87Zm-42.61,9.16l31.64-.09c2.21,0,4,1.71,4,3.83v18.6c0,2.11-1.78,3.82-3.98,3.83l-31.64,.09c-2.21,0-4-1.71-4-3.83V15.53c0-2.11,1.78-3.82,3.98-3.83Z"/>
				<polygon class="cls-1" points="878.37 122.44 894.62 122.44 897.46 49.17 881.21 49.17 878.37 122.44"/>
				<path class="cls-1"
				      d="M925.82,14.24h2.93c4.07-.02,7.37-3.2,7.37-7.11V2.51h-16.25c0,1.5-1.27,2.72-2.83,2.73l-40.59,.14V14.42l33.11-.12v19.27l-33.18,.12v9.03l33.18-.12V122.44h16.25v-48.73h10.62v-9.03l-10.62-.02v-22.12l10.62-.04v-9.03l-10.62,.04V14.24Z"/>
			</g>
			<g>
				<polygon class="cls-1"
				         points="857.26 6.59 804.83 6.75 804.83 2.51 788.58 2.51 788.58 15.83 857.26 15.62 857.26 6.59"/>
				<path class="cls-1"
				      d="M758.63,2.51h-16.25V6.81h-24.37s0,9.02,0,9.02h10.49s-2.23,93.95-2.23,93.95c-.05,2.08-1.82,3.74-3.99,3.74h-3.94s0,9.03,0,9.03l12.95,.02c6.15,0,11.18-4.71,11.31-10.61l1.51-69.13h16.04c2.2,.02,3.98,1.73,3.98,3.84v63.02c0,2.12-1.79,3.83-3.99,3.83h-8.23s0,9.06,0,9.06h17.19c6.23,0,11.29-4.85,11.29-10.83l.06-68.56c0-5.18-4.36-9.37-9.76-9.38l-26.36-.02,.43-17.95,35.7,.02V6.83h-21.82V2.51Z"/>
				<path class="cls-1"
				      d="M811.25,37.87l36.81-.11c5.09-.02,9.2-3.98,9.2-8.86v-4.17h-16.25c0,2.22-1.87,4.02-4.19,4.03l-36.71,.11c-6.38,.02-11.54,4.99-11.54,11.11V111.6c0,6.07,5.13,10.98,11.45,10.98h21.89v-9.03l-13.1-.02c-2.2,0-3.98-1.72-3.98-3.83V44.05c0-3.41,2.87-6.17,6.42-6.18Z"/>
				<path class="cls-1"
				      d="M838.82,64.68h18.44v-9.03l-19.44-.03-1.2-10.91h-16.25l7.47,67.94c.61,5.59,5.53,9.83,11.38,9.83h18.46v-9.03h-9.93c-2.04-.02-3.75-1.49-3.96-3.44l-4.99-45.32Z"/>
			</g>
			<g>
				<path class="cls-1"
				      d="M442.16,78.23h9.63v-9.03h-9.63v-17.89h9.63v-9.03h-9.63V15.87h9.63V6.83h-9.63V2.51h-16.25V6.83h-23.74V15.87h23.74v26.4h-23.74v9.03h23.74v61.97h-2.95c-2.2,0-3.99-1.71-3.99-3.83V59.91h-16.25l.03,51.87c0,5.81,4.91,10.52,10.97,10.52h127.62v-9.03h-92.69c-3.59,0-6.5-2.79-6.5-6.24v-28.8Z"/>
				<path class="cls-1"
				      d="M456.87,93.22l-2.36,.21v9.03l26.59-2.41v4.63h16.25v-6.1l2.27-.21v-9.03l-2.27,.21V11.55h2.21s0-9.03,0-9.03h-2.21s-16.25,0-16.25,0h0s-26.64-.01-26.64-.01V11.53h2.42V93.22Zm21.94-34.8h-3.41c-1.26,0-2.28-.98-2.28-2.19v-14.49c0-1.21,1.02-2.19,2.28-2.19h3.41c1.26,0,2.28,.98,2.28,2.19v14.49c0,1.21-1.02,2.19-2.28,2.19Zm-5.69,30.92v-19.7c0-1.21,1.02-2.19,2.28-2.19h3.41c1.26,0,2.28,.98,2.28,2.19v19.39c0,1.13-.9,2.07-2.07,2.18l-3.41,.31c-1.34,.12-2.49-.89-2.49-2.18Zm5.69-58.82h-3.41c-1.26,0-2.28-.98-2.28-2.19V13.73c0-1.21,1.02-2.19,2.28-2.19h3.41c1.26,0,2.28,.98,2.28,2.19v14.6c0,1.21-1.02,2.19-2.28,2.19Z"/>
				<path class="cls-1"
				      d="M529.18,65.29l11.85-53.22c.08-.35,.13-.7,.13-1.06h0c0-4.7-3.97-8.5-8.86-8.5l-29.39-.02V11.53h16.22c2.96,.01,5.14,2.66,4.46,5.42l-3.44,19.83-6.23-16.96h-13.26l13.16,37.73-11.31,47.2h16.25l4.24-18.13,4.99,18.11,13.75,.02-12.53-39.47Z"/>
			</g>
			<g>
				<path class="cls-1"
				      d="M683.03,2.81h-16.25l-3.11,17.35h-24.22s-3.15-17.56-3.15-17.56h-16.25l3.15,17.55h-27.18s-3.15-17.55-3.15-17.55h-16.25l3.15,17.55h-9.09c-5.4,0-9.77,4.2-9.77,9.38v13.23h16.25v-9.74c0-2.11,1.79-3.83,3.99-3.83h98.04c2.2,.01,3.99,1.73,3.99,3.84v9.73h16.25v-13.21c0-5.18-4.37-9.38-9.77-9.38h-9.74s3.11-17.35,3.11-17.35Z"/>
				<path class="cls-1"
				      d="M698.88,76.39h-37.3s17.82-18.68,17.82-18.68c1.53-1.6,2.38-3.72,2.38-5.93h0c0-3.3-2.67-5.97-5.97-5.97l-98.33-.02v9.42l84.31,.02c.76,0,1.15,.91,.63,1.46l-18.8,19.69h-83.25s0,9.4,0,9.4h83.32v25.32c0,1.14-.92,2.06-2.06,2.06h-60.73s0,8.34,0,8.34l73.27,1c3.17,.04,5.77-2.52,5.77-5.69v-30.98l38.95-.03v-9.42Z"/>
			</g>
		</g>
		<g>
			<path class="cls-1"
			      d="M423.88,172c1.58,1.09,3.04,1.88,4.37,2.39l-1,2.37c-1.85-.67-3.69-1.72-5.53-3.16-1.91,1.06-4.01,1.6-6.32,1.6s-4.44-.56-6.33-1.68-3.35-2.7-4.38-4.74c-1.02-2.04-1.54-4.33-1.54-6.88s.51-4.85,1.54-6.93c1.03-2.08,2.49-3.67,4.39-4.75,1.9-1.09,4.03-1.63,6.38-1.63s4.51,.56,6.42,1.69c1.91,1.13,3.36,2.71,4.36,4.74,1,2.03,1.5,4.32,1.5,6.87,0,2.12-.32,4.02-.96,5.71-.64,1.69-1.61,3.16-2.91,4.41Zm-7.49-4.35c1.96,.55,3.58,1.37,4.86,2.46,2-1.82,3-4.57,3-8.23,0-2.08-.35-3.9-1.06-5.46-.71-1.56-1.74-2.76-3.11-3.62-1.36-.86-2.89-1.29-4.59-1.29-2.54,0-4.64,.87-6.32,2.61-1.67,1.74-2.51,4.33-2.51,7.78s.83,5.91,2.48,7.7c1.65,1.79,3.77,2.68,6.34,2.68,1.21,0,2.36-.23,3.44-.68-1.07-.69-2.19-1.18-3.37-1.47l.82-2.47Z"/>
			<path class="cls-1"
			      d="M475.58,149.03h3.4v14.86c0,2.58-.29,4.64-.88,6.16s-1.64,2.76-3.17,3.71c-1.53,.95-3.53,1.43-6.01,1.43s-4.38-.42-5.91-1.25-2.63-2.03-3.28-3.61c-.65-1.57-.98-3.72-.98-6.45v-14.86h3.41v14.84c0,2.23,.21,3.88,.62,4.94,.42,1.06,1.13,1.87,2.14,2.45,1.01,.57,2.25,.86,3.71,.86,2.5,0,4.29-.57,5.35-1.7s1.6-3.32,1.6-6.54v-14.84Z"/>
			<path class="cls-1"
			      d="M508.41,174.75l9.95-13.4-8.77-12.32h4.05l4.66,6.6c.97,1.37,1.66,2.42,2.07,3.16,.57-.94,1.25-1.91,2.04-2.93l5.17-6.82h3.7l-9.03,12.12,9.74,13.6h-4.21l-6.47-9.18c-.36-.53-.74-1.1-1.12-1.72-.57,.94-.98,1.58-1.23,1.93l-6.46,8.96h-4.09Z"/>
			<path class="cls-1"
			      d="M578.24,149.03h3.4v14.86c0,2.58-.29,4.64-.88,6.16s-1.64,2.76-3.17,3.71c-1.53,.95-3.53,1.43-6.01,1.43s-4.38-.42-5.91-1.25-2.63-2.03-3.28-3.61c-.65-1.57-.98-3.72-.98-6.45v-14.86h3.41v14.84c0,2.23,.21,3.88,.62,4.94,.42,1.06,1.13,1.87,2.14,2.45,1.01,.57,2.25,.86,3.71,.86,2.5,0,4.29-.57,5.35-1.7s1.6-3.32,1.6-6.54v-14.84Z"/>
			<path class="cls-1"
			      d="M613.75,174.75v-25.72h18.6v3.04h-15.19v7.88h14.23v3.02h-14.23v8.75h15.79v3.04h-19.19Z"/>
			<path class="cls-1" d="M670.56,174.75v-22.68h-8.47v-3.04h20.39v3.04h-8.51v22.68h-3.4Z"/>
			<path class="cls-1"
			      d="M712.39,174.75v-25.72h11.41c2.29,0,4.03,.23,5.23,.69s2.15,1.28,2.86,2.45,1.07,2.46,1.07,3.88c0,1.82-.59,3.36-1.77,4.61s-3.01,2.05-5.47,2.39c.9,.43,1.58,.86,2.05,1.28,.99,.91,1.94,2.05,2.83,3.42l4.47,7h-4.28l-3.4-5.35c-1-1.54-1.81-2.73-2.46-3.54-.64-.82-1.22-1.39-1.73-1.72-.51-.33-1.03-.56-1.55-.68-.39-.08-1.02-.12-1.89-.12h-3.95v11.42h-3.41Zm3.41-14.37h7.31c1.56,0,2.77-.16,3.65-.48s1.54-.84,2-1.54,.68-1.48,.68-2.31c0-1.22-.44-2.22-1.32-3-.88-.78-2.28-1.18-4.18-1.18h-8.14v8.51Z"/>
			<path class="cls-1" d="M765.24,174.75v-25.72h3.4v25.72h-3.4Z"/>
			<path class="cls-1"
			      d="M801.01,174.75v-25.72h9.7c1.71,0,3.01,.08,3.91,.25,1.26,.21,2.32,.61,3.18,1.2,.85,.59,1.54,1.42,2.06,2.48,.52,1.06,.78,2.23,.78,3.51,0,2.19-.7,4.04-2.09,5.55-1.39,1.52-3.91,2.27-7.54,2.27h-6.6v10.46h-3.4Zm3.4-13.49h6.65c2.2,0,3.76-.41,4.68-1.23s1.39-1.97,1.39-3.46c0-1.08-.27-2-.82-2.76-.54-.77-1.26-1.27-2.15-1.52-.57-.15-1.63-.23-3.17-.23h-6.58v9.19Z"/>
			<path class="cls-1" d="M847.21,174.75v-3.6h3.6v3.6h-3.6Z"/>
			<path class="cls-1"
			      d="M901.42,165.73l3.4,.86c-.71,2.8-2,4.93-3.85,6.4-1.85,1.47-4.12,2.2-6.8,2.2s-5.03-.56-6.76-1.69c-1.74-1.13-3.06-2.76-3.96-4.9-.91-2.14-1.36-4.44-1.36-6.89,0-2.68,.51-5.01,1.54-7.01,1.02-1.99,2.48-3.51,4.37-4.54,1.89-1.04,3.97-1.55,6.24-1.55,2.57,0,4.74,.65,6.49,1.96s2.98,3.15,3.67,5.53l-3.35,.79c-.6-1.87-1.46-3.23-2.6-4.09s-2.56-1.28-4.28-1.28c-1.98,0-3.63,.47-4.96,1.42-1.33,.95-2.26,2.22-2.8,3.82-.54,1.6-.81,3.24-.81,4.94,0,2.19,.32,4.1,.96,5.73,.64,1.63,1.63,2.85,2.97,3.66s2.8,1.21,4.37,1.21c1.9,0,3.52-.55,4.84-1.65,1.32-1.1,2.22-2.73,2.68-4.89Z"/>
			<path class="cls-1"
			      d="M934.36,162.22c0-4.27,1.14-7.61,3.44-10.03,2.29-2.41,5.25-3.62,8.88-3.62,2.37,0,4.51,.57,6.42,1.7,1.9,1.13,3.36,2.72,4.36,4.75,1,2.03,1.5,4.33,1.5,6.9s-.52,4.94-1.58,7c-1.05,2.06-2.54,3.62-4.47,4.67-1.93,1.06-4.01,1.59-6.25,1.59-2.42,0-4.58-.58-6.49-1.75s-3.35-2.77-4.33-4.79c-.98-2.02-1.47-4.16-1.47-6.42Zm3.51,.05c0,3.1,.83,5.54,2.5,7.32,1.67,1.78,3.76,2.68,6.27,2.68s4.67-.9,6.32-2.7c1.65-1.8,2.48-4.36,2.48-7.67,0-2.09-.35-3.92-1.06-5.48-.71-1.56-1.74-2.77-3.1-3.63-1.36-.86-2.89-1.29-4.59-1.29-2.41,0-4.48,.83-6.22,2.48-1.74,1.66-2.6,4.42-2.6,8.29Z"/>
			<path class="cls-1"
			      d="M989.6,174.75v-25.72h5.12l6.09,18.21c.56,1.7,.97,2.96,1.23,3.81,.29-.94,.75-2.31,1.37-4.12l6.16-17.89h4.58v25.72h-3.28v-21.53l-7.47,21.53h-3.07l-7.44-21.89v21.89h-3.28Z"/>
		</g>
	</g>
</svg>